<svg width="12" height="12" viewBox="0 0 12 12" fill="none" xmlns="http://www.w3.org/2000/svg">
<path d="M10.0271 3.45991L10.2868 3.30969L10.2868 3.30969L10.0271 3.45991ZM10.0638 3.94689C10.2239 3.98964 10.3883 3.89453 10.431 3.73445L11.1276 1.12586C11.1704 0.965783 11.0753 0.801363 10.9152 0.758616C10.7551 0.715868 10.5907 0.810982 10.5479 0.971058L9.92874 3.28981L7.60999 2.6706C7.44992 2.62785 7.2855 2.72297 7.24275 2.88304C7.2 3.04312 7.29511 3.20754 7.45519 3.25029L10.0638 3.94689ZM1.82603 8.24955L1.55714 8.38258L1.55714 8.38258L1.82603 8.24955ZM1.82088 7.76076C1.66392 7.7077 1.49367 7.79193 1.44061 7.94889L0.575974 10.5067C0.522916 10.6637 0.607145 10.8339 0.764105 10.887C0.921065 10.94 1.09132 10.8558 1.14438 10.6988L1.91294 8.42523L4.18655 9.1938C4.34351 9.24685 4.51377 9.16262 4.56683 9.00566C4.61988 8.8487 4.53566 8.67845 4.3787 8.62539L1.82088 7.76076ZM9.76746 3.61013L9.8815 3.80727L10.4009 3.50683L10.2868 3.30969L9.76746 3.61013ZM1.3 6.07566C1.3 3.65163 2.82366 2.00945 4.64332 1.48218C6.46135 0.955378 8.57077 1.54146 9.76746 3.61013L10.2868 3.30969C8.9402 0.981834 6.53606 0.309048 4.47633 0.905883C2.41825 1.50224 0.7 3.36621 0.7 6.07566H1.3ZM2.09492 8.11652L1.99371 7.91193L1.45592 8.17799L1.55714 8.38258L2.09492 8.11652ZM10.7006 6.24535C10.3914 11.0848 4.20572 12.3831 2.09492 8.11652L1.55714 8.38258C3.96112 13.2418 10.954 11.6885 11.2994 6.28361L10.7006 6.24535Z" fill="#110E1A"/>
</svg>
