<svg width="12" height="14" viewBox="0 0 12 14" xmlns="http://www.w3.org/2000/svg">
  <style>
    path {
      fill: #ff0000;
    }
    .dark {
      path { fill: #ffffff; }
    }
</style>
<path d="M3.6 2.5C3.6 2.72091 3.77909 2.9 4 2.9C4.22091 2.9 4.4 2.72091 4.4 2.5H3.6ZM7.6 2.5C7.6 2.72091 7.77909 2.9 8 2.9C8.22091 2.9 8.4 2.72091 8.4 2.5H7.6ZM5.2 8.6C5.2 8.82091 5.37909 9 5.6 9C5.82091 9 6 8.82091 6 8.6H5.2ZM6 5.4C6 5.17909 5.82091 5 5.6 5C5.37909 5 5.2 5.17909 5.2 5.4H6ZM5.4 8.2C5.17909 8.2 5 8.37909 5 8.6C5 8.82091 5.17909 9 5.4 9V8.2ZM8.6 9C8.82091 9 9 8.82091 9 8.6C9 8.37909 8.82091 8.2 8.6 8.2V9ZM5.5 1.4H6.5V0.6H5.5V1.4ZM6.5 1.4C7.10751 1.4 7.6 1.89249 7.6 2.5H8.4C8.4 1.45066 7.54934 0.6 6.5 0.6V1.4ZM5.5 0.6C4.45066 0.6 3.6 1.45066 3.6 2.5H4.4C4.4 1.89249 4.89249 1.4 5.5 1.4V0.6ZM10.6 8C10.6 10.5405 8.54051 12.6 6 12.6V13.4C8.98234 13.4 11.4 10.9823 11.4 8H10.6ZM6 12.6C3.45949 12.6 1.4 10.5405 1.4 8H0.6C0.6 10.9823 3.01766 13.4 6 13.4V12.6ZM1.4 8C1.4 5.45949 3.45949 3.4 6 3.4V2.6C3.01766 2.6 0.6 5.01766 0.6 8H1.4ZM6 3.4C8.54051 3.4 10.6 5.45949 10.6 8H11.4C11.4 5.01766 8.98234 2.6 6 2.6V3.4ZM6 8.6V5.4H5.2V8.6H6ZM5.4 9H8.6V8.2H5.4V9Z" />
</svg>
